<?xml version="1.0" encoding="UTF-8"?><svg xmlns="http://www.w3.org/2000/svg" viewBox="0 0 107.68 65.19"><defs><style>.d{fill:#d00e46;}.e{fill:#c4c3c8;}</style></defs><g id="a"/><g id="b"><g id="c"><g><path class="d" d="M74.88,15.52c0-.71-.29-1-1-1-5.65,0-11.29,0-16.94,0-.68,0-.96,.29-.96,.96V31.7h-7v-1.27c0-.63,0-1.25,0-1.87,0-.33-.09-.6-.25-.76-.13-.13-.31-.19-.54-.19h-.02c-.51,0-.77,.32-.77,.92,0,2.34,0,4.69,0,7.03v3.83h-7.05v-1.64c0-.88,0-1.75,0-2.63,0-.41-.18-.65-.59-.78-.1-.03-.19-.05-.27-.05-.23,0-.42,.11-.58,.34-.1,.14-.16,.38-.16,.6-.01,7.4-.01,14.8,0,22.2,0,.67,.29,.96,.96,.96,5.65,0,11.29,0,16.94,0,.03-.01,.08-.02,.13-.02h.07l.14,.02c5.63,0,11.28,0,16.93,0,.68,0,.96-.29,.96-.96v-5.85c0-12.02,0-24.04,0-36.06Zm-34.5,25.65h6.96v6.72h-6.96v-6.72Zm6.97,15.5h-6.96v-7.06h6.96v7.06Zm1.69-23.2h6.92v5.93h-6.92v-5.93Zm6.94,23.23h-6.93v-7.09h6.93v7.09Zm0-8.8h-6.96v-6.75h6.96v6.75Zm10.31-31.68h6.93v7.09h-6.93v-7.09Zm-1.69,.03v7.06h-6.96v-7.06h6.96Zm-6.96,8.78h6.95v6.67h-6.95v-6.67Zm6.94,8.5v5.87h-6.92v-5.87h6.92Zm0,23.17h-6.93v-7.09h6.93v7.09Zm.02-8.8h-6.96v-6.75h6.96v6.75Zm1.66-22.88h6.96v6.75h-6.96v-6.75Zm6.95,8.5v5.87h-6.92v-5.87h6.92Zm.02,23.16h-6.96v-7.06h6.96v7.06Zm0-8.78h-6.96v-6.67h6.96v6.67Z"/><g><path class="e" d="M1.53,58.9c8.82,0,17.65,0,26.47,0,.65,0,.91-.27,.91-.92,0-1.96,0-3.93,0-5.89,0-.63-.27-.89-.9-.89-5.09,0-10.19,0-15.28,0h-.52V22.53h.99c.75,0,1.5,0,2.25,0,.59,0,.85-.25,.85-.84,0-1.23,0-2.45,.01-3.68,0-.15,.1-.36,.23-.44,5.62-3.82,11.25-7.64,16.88-11.45,.05-.03,.1-.06,.19-.12v10.79c-.35,0-.7,0-1.05,0-.53,0-.84,.27-.84,.71,0,.44,.31,.72,.83,.73,.33,0,.66,0,.99,.01,.02,0,.04,.02,.1,.05,0,.67,0,1.35-.01,2.03,0,.07-.16,.18-.27,.21-1.17,.31-1.96,1.02-2.31,2.19-.42,1.39,.22,2.91,1.5,3.6,1.29,.7,2.93,.4,3.87-.72,.31-.37,.3-.8-.02-1.07-.33-.28-.73-.23-1.06,.15-.45,.51-1.02,.68-1.66,.55-.63-.13-1.06-.55-1.25-1.18-.35-1.15,.63-2.29,1.8-2.09,.51,.09,.88-.24,.88-.81,0-.83,0-1.67,0-2.5v-.41c.38,0,.73,0,1.08,0,.52,0,.84-.29,.84-.72,0-.44-.32-.72-.84-.72-.34,0-.69,0-1.08,0v-.37c0-3.71,0-7.41,0-11.12,0-.25,.08-.39,.29-.53,.84-.55,1.67-1.12,2.5-1.69,.42-.29,.5-.62,.25-1.07-.26-.47-.54-.93-.81-1.4-.4-.7-.64-.77-1.36-.39-3.11,1.65-6.23,3.3-9.34,4.95-3.34,1.77-6.68,3.54-10.02,5.31-.11,.06-.22,.11-.35,.17-.22-.36-.57-.42-.95-.42-3.91,0-7.83,0-11.74,0-.78,0-1,.22-1,1.01,0,3.46,0,6.92,0,10.38,0,.66,.22,.89,.87,.89,.93,0,1.87,0,2.8,0h.42v28.66c-.13,0-.26,.02-.39,.02-1.57,0-3.14,0-4.71,0-.66,0-.9,.25-.9,.92,0,1.96,0,3.93,0,5.89,0,.62,.27,.9,.89,.9ZM16.68,12.05c5.23-2.76,10.46-5.53,15.69-8.3,1.29-.69,2.59-1.37,3.91-2.07,.11,.19,.21,.36,.31,.54-6.76,4.58-13.48,9.14-20.29,13.74,0-1.17,.01-2.24,0-3.3,0-.32,.1-.47,.38-.61ZM4,21.1V11.73H14.84v9.37H4Zm6.73,1.46v28.62h-2.63V22.55h2.63ZM2.08,52.68H27.43v4.75H2.08v-4.75Z"/><path class="e" d="M107.63,36.24c-.1-.24-.33-.4-.59-.4h-26.08c-.35,0-.64,.28-.64,.64s.28,.64,.64,.64h24.52l-27.35,26.79H.64c-.35,0-.64,.29-.64,.64s.29,.64,.64,.64H78.4c.17,0,.33-.06,.45-.18l28.65-28.07c.19-.18,.24-.46,.14-.69Z"/></g></g></g></g></svg>