<?xml version="1.0" encoding="UTF-8"?><svg xmlns="http://www.w3.org/2000/svg" viewBox="0 0 107.68 50.67"><defs><style>.d{fill:#d00e46;}.e{fill:#c4c3c8;}</style></defs><g id="a"/><g id="b"><g id="c"><g><path class="d" d="M73.75,8.9h-25.83c-.43,0-.77,.35-.77,.77v8.43c0,.43,.35,.77,.77,.77h25.83c.43,0,.77-.35,.77-.77V9.67c0-.43-.35-.77-.77-.77Zm-18.14,8.32h-6.96v-6.72h6.96v6.72Zm8.62,0h-6.96v-6.72h6.96v6.72Zm8.62,0h-6.96v-6.72h6.96v6.72Z"/><g><path class="e" d="M107.63,21.73c-.1-.24-.33-.4-.59-.4h-26.08c-.35,0-.64,.29-.64,.64s.29,.64,.64,.64h24.52l-27.35,26.79H.64c-.35,0-.64,.28-.64,.64s.29,.64,.64,.64H78.39c.17,0,.33-.06,.45-.18l28.65-28.07c.19-.18,.24-.46,.14-.69Z"/><path class="e" d="M8.5,33.83c3.64,0,7.29,0,10.93,0,.01,0,.03,0,.04,0h.1s.03,0,.04,0c3.64,0,7.29,0,10.93,0,.55,0,.82-.27,.82-.82v-9.67s0-.04,.02-.06V10.92c0-.55-.27-.82-.82-.82-3.64,0-7.29,0-10.93,0-.01,0-.03,0-.04,0h-.1s-.03,0-.04,0c-3.64,0-7.28,0-10.93,0-.55,0-.82,.27-.82,.82v9.67s0,.04-.02,.06v12.36c0,.55,.27,.82,.82,.82Zm15.87-1.61c0,.08-.07,.15-.15,.15h-3.84c-.08,0-.15-.07-.15-.15v-3.91c0-.08,.07-.15,.15-.15h3.84c.08,0,.15,.07,.15,.15v3.91Zm5.56,.02c0,.08-.07,.15-.15,.15h-3.83c-.08,0-.15-.07-.15-.15v-3.93c0-.08,.07-.15,.15-.15h3.83c.08,0,.15,.07,.15,.15v3.93Zm-4.11-20.54c0-.08,.07-.15,.15-.15h3.83c.08,0,.15,.07,.15,.15v3.93c0,.08-.07,.15-.15,.15h-3.83c-.08,0-.15-.07-.15-.15v-3.93Zm-.01,5.67c0-.08,.07-.15,.15-.15h3.84c.08,0,.15,.07,.15,.15v3.71c0,.08-.06,.14-.13,.15h-3.86c-.08,0-.15-.07-.15-.15v-3.71Zm-.02,5.48c0-.08,.07-.15,.15-.15h3.85c.08,0,.15,.07,.15,.15v3.71c0,.08-.07,.15-.15,.15h-3.85c-.08,0-.15-.07-.15-.15v-3.71Zm-5.55-11.14c0-.08,.07-.15,.15-.15h3.84c.08,0,.15,.07,.15,.15v3.91c0,.08-.07,.15-.15,.15h-3.84c-.08,0-.15-.07-.15-.15v-3.91Zm0,5.67c0-.08,.07-.15,.15-.15h3.84c.08,0,.15,.07,.15,.15v3.69c0,.08-.07,.15-.15,.15h-3.84s-.08-.02-.11-.04c-.03-.03-.04-.07-.04-.11v-3.69Zm.03,5.38s.07-.04,.1-.04h3.84c.08,0,.15,.07,.15,.15v3.69c0,.08-.07,.15-.15,.15h-3.84c-.08,0-.15-.07-.15-.15v-3.69s.01-.08,.04-.11Zm-7.04,9.48c0,.08-.07,.15-.15,.15h-3.83c-.08,0-.15-.07-.15-.15v-3.93c0-.08,.07-.15,.15-.15h3.83c.08,0,.15,.07,.15,.15v3.93Zm5.6-11.17s-.02,.08-.04,.1c-.03,.03-.07,.04-.1,.04h-3.85c-.08,0-.15-.07-.15-.15v-3.69c0-.08,.07-.15,.15-.15h3.84c.08,0,.15,.07,.15,.15v3.69Zm-4.15-9.36c0-.08,.07-.15,.15-.15h3.84c.08,0,.15,.07,.15,.15v3.91c0,.08-.07,.15-.15,.15h-3.84c-.08,0-.15-.07-.15-.15v-3.91Zm-.01,11.15c0-.08,.07-.15,.15-.15h3.84s.08,.02,.11,.04c.03,.03,.04,.07,.04,.11,0,1.23,0,2.46,0,3.69,0,.08-.07,.15-.15,.15h-3.84c-.08,0-.15-.07-.15-.15v-3.69Zm0,5.45c0-.08,.07-.15,.15-.15h3.85c.08,0,.15,.07,.15,.15v3.91c0,.08-.07,.15-.15,.15h-3.85c-.08,0-.15-.07-.15-.15v-3.91ZM9.12,11.7c0-.08,.07-.15,.15-.15h3.83c.08,0,.15,.07,.15,.15v3.93c0,.08-.07,.15-.15,.15h-3.83c-.08,0-.15-.07-.15-.15v-3.93Zm0,5.67c0-.08,.07-.15,.15-.15h3.85c.08,0,.15,.07,.15,.15v3.71c0,.08-.07,.15-.15,.15h-3.85c-.08,0-.15-.07-.15-.15v-3.71Zm-.02,5.48c0-.08,.06-.14,.14-.15h3.85c.08,0,.15,.07,.15,.15v3.71c0,.08-.07,.15-.15,.15h-3.85c-.08,0-.15-.07-.15-.15v-3.71Z"/><path class="e" d="M38.35,42.92c0,.68,.29,.96,.96,.96,5.65,0,11.29,0,16.94,0,.03-.01,.08-.02,.13-.02h.07l.14,.02c5.63,0,11.28,0,16.93,0,.68,0,.96-.29,.96-.96V19.71c-.22,.11-.47,.17-.74,.17h-.94v5h-6.92v-5h-1.7v5.01h-6.92v-5.01h-1.7v5.01h-6.92v-5.01h-.72c-.36,0-.7-.11-.98-.3v5.29h-6.92v-5.87h6.39c-.16-.26-.25-.57-.25-.9v-.85h-6.15v-6.75h6.15v-.83h0c0-.32,.09-.62,.24-.88h-6.39V1.71h6.93v6.49c.28-.19,.62-.3,.98-.3h.71V1.73h6.96V7.9h1.66V1.73h6.96V7.9h1.69V1.71h6.93V7.9h.93c.27,0,.52,.06,.74,.17V1c0-.71-.29-1-1-1C67.85,0,62.2,0,56.56,0c-.01,0-.06,.02-.11,.02h-.07l-.13-.02c-5.61,0-11.26,0-16.91,0-.71,0-1,.29-1,1V42.92Zm25.85-.74h-6.93v-7.08h6.93v7.08Zm1.69-15.48h6.96v6.67h-6.96v-6.67Zm0,8.4h6.96v7.06h-6.96v-7.06Zm-8.63-8.46h6.96v6.75h-6.96v-6.75Zm-1.67,15.54h-6.93v-7.08h6.93v7.08Zm-6.95-15.54h6.96v6.75h-6.96v-6.75Zm-1.67,15.52h-6.96v-7.06h6.96v7.06Zm-6.97-15.46h6.96v6.67h-6.96v-6.67Z"/></g></g></g></g></svg>